<svg xmlns="http://www.w3.org/2000/svg" width="820" height="300" viewBox="0 0 820 300">
<rect width="820" height="300" rx="12" fill="#0d1117" stroke="#30363d" stroke-width="2"/>
<text x="24" y="30" font-family="ui-monospace,SFMono-Regular,Menlo,Consolas,monospace" font-size="15" font-weight="700" fill="#e6edf3">LIVE PAPER-TRADING EXPERIMENT</text>
<text x="24" y="48" font-family="ui-monospace,SFMono-Regular,Menlo,Consolas,monospace" font-size="10.5" fill="#8b949e">qr-alpha-lab · nightly via GitHub Actions · predictions logged BEFORE any order exists · shadow 12-1 momentum control arm</text>
<text x="24" y="64" font-family="ui-monospace,SFMono-Regular,Menlo,Consolas,monospace" font-size="10.5" fill="#8b949e">cycle 38 · 2026-06-10 → 2026-08-05 · Alpaca paper account (client refuses non-paper endpoints)</text>
<g>
  <rect x="22" y="82" width="576" height="184" rx="8" fill="#161b22" stroke="#30363d"/>
  <line x1="30" y1="148.5" x2="590" y2="148.5" stroke="#8b949e" stroke-width="1" stroke-dasharray="4 4" opacity=".7"/>
  <text x="586" y="143.5" font-family="ui-monospace,SFMono-Regular,Menlo,Consolas,monospace" font-size="9" fill="#8b949e" text-anchor="end">$1,000,000 start</text>
  <polygon points="30,148.5 30.0,148.5 45.1,141.3 60.3,140.2 75.4,121.5 90.5,112.9 105.7,115.3 120.8,107.0 135.9,125.3 151.1,110.1 166.2,104.5 181.4,127.8 196.5,135.2 211.6,130.0 226.8,140.4 241.9,151.4 257.0,144.3 272.2,153.7 287.3,131.8 302.4,122.7 317.6,120.9 332.7,133.7 347.8,134.4 363.0,139.2 378.1,159.5 393.2,153.1 408.4,150.2 423.5,129.4 438.6,119.2 453.8,115.9 468.9,142.1 484.1,163.5 499.2,200.6 514.3,229.5 529.5,181.3 544.6,192.7 559.7,177.9 574.9,168.8 590.0,177.9 590.0,242 30,242" fill="#f85149" opacity="0.12"/>
  <polyline points="30.0,148.5 45.1,141.3 60.3,140.2 75.4,121.5 90.5,112.9 105.7,115.3 120.8,107.0 135.9,125.3 151.1,110.1 166.2,104.5 181.4,127.8 196.5,135.2 211.6,130.0 226.8,140.4 241.9,151.4 257.0,144.3 272.2,153.7 287.3,131.8 302.4,122.7 317.6,120.9 332.7,133.7 347.8,134.4 363.0,139.2 378.1,159.5 393.2,153.1 408.4,150.2 423.5,129.4 438.6,119.2 453.8,115.9 468.9,142.1 484.1,163.5 499.2,200.6 514.3,229.5 529.5,181.3 544.6,192.7 559.7,177.9 574.9,168.8 590.0,177.9" fill="none" stroke="#f85149" stroke-width="2" stroke-linejoin="round"/>
  <circle cx="590.0" cy="177.9" r="3.5" fill="#f85149"/>
  <text x="582.0" y="168.9" font-family="ui-monospace,SFMono-Regular,Menlo,Consolas,monospace" font-size="11" font-weight="700" fill="#f85149" text-anchor="end">$978,154 (-2.18%)</text>
  <text x="30" y="258" font-family="ui-monospace,SFMono-Regular,Menlo,Consolas,monospace" font-size="10" fill="#8b949e" text-anchor="start">2026-06-10</text><text x="318" y="258" font-family="ui-monospace,SFMono-Regular,Menlo,Consolas,monospace" font-size="10" fill="#8b949e" text-anchor="middle">2026-07-10</text><text x="590" y="258" font-family="ui-monospace,SFMono-Regular,Menlo,Consolas,monospace" font-size="10" fill="#8b949e" text-anchor="end">2026-08-05</text>
</g>
<rect x="610" y="86" width="186" height="27" rx="5" fill="#161b22" stroke="#30363d"/><text x="619" y="97" font-family="ui-monospace,SFMono-Regular,Menlo,Consolas,monospace" font-size="7.5" fill="#58a6ff" letter-spacing="1">CYCLES LOGGED</text><text x="619" y="108" font-family="ui-monospace,SFMono-Regular,Menlo,Consolas,monospace" font-size="11" fill="#e6edf3">38</text><rect x="610" y="117" width="186" height="27" rx="5" fill="#161b22" stroke="#30363d"/><text x="619" y="128" font-family="ui-monospace,SFMono-Regular,Menlo,Consolas,monospace" font-size="7.5" fill="#58a6ff" letter-spacing="1">PAPER EQUITY</text><text x="619" y="139" font-family="ui-monospace,SFMono-Regular,Menlo,Consolas,monospace" font-size="11" fill="#e6edf3">$978,154</text><rect x="610" y="148" width="186" height="27" rx="5" fill="#161b22" stroke="#30363d"/><text x="619" y="159" font-family="ui-monospace,SFMono-Regular,Menlo,Consolas,monospace" font-size="7.5" fill="#58a6ff" letter-spacing="1">SINCE START</text><text x="619" y="170" font-family="ui-monospace,SFMono-Regular,Menlo,Consolas,monospace" font-size="11" fill="#f85149">-2.18%</text><rect x="610" y="179" width="186" height="27" rx="5" fill="#161b22" stroke="#30363d"/><text x="619" y="190" font-family="ui-monospace,SFMono-Regular,Menlo,Consolas,monospace" font-size="7.5" fill="#58a6ff" letter-spacing="1">BOOK / ORDERS</text><text x="619" y="201" font-family="ui-monospace,SFMono-Regular,Menlo,Consolas,monospace" font-size="11" fill="#e6edf3">98 names · 106 orders</text><rect x="610" y="210" width="186" height="27" rx="5" fill="#161b22" stroke="#30363d"/><text x="619" y="221" font-family="ui-monospace,SFMono-Regular,Menlo,Consolas,monospace" font-size="7.5" fill="#58a6ff" letter-spacing="1">ORDER FAILURES</text><text x="619" y="232" font-family="ui-monospace,SFMono-Regular,Menlo,Consolas,monospace" font-size="11" fill="#3fb950">0</text><rect x="610" y="241" width="186" height="27" rx="5" fill="#161b22" stroke="#30363d"/><text x="619" y="252" font-family="ui-monospace,SFMono-Regular,Menlo,Consolas,monospace" font-size="7.5" fill="#58a6ff" letter-spacing="1">RETURN-CELL REVISIONS</text><text x="619" y="263" font-family="ui-monospace,SFMono-Regular,Menlo,Consolas,monospace" font-size="11" fill="#e6edf3">252</text>
<text x="24" y="288" font-family="ui-monospace,SFMono-Regular,Menlo,Consolas,monospace" font-size="9.5" fill="#8b949e">honest by construction: every cycle committed to the repo — including this drawdown. live IC vs backtest IC graded at 21-day label maturity.</text>
</svg>